<svg width="800" height="800" viewBox="0 0 800 800" fill="none" xmlns="http://www.w3.org/2000/svg">
<path d="M160.667 325.916V540C160.667 596.007 160.667 624.01 171.566 645.4C181.153 664.217 196.451 679.514 215.268 689.1C236.659 700 264.661 700 320.667 700H467.333C523.34 700 551.34 700 572.733 689.1C591.55 679.514 606.847 664.217 616.433 645.4C627.333 624.01 627.333 596.007 627.333 540V325.937M694 400L512.893 198.8C471.703 153.041 451.11 130.162 426.853 121.715C405.553 114.296 382.367 114.298 361.063 121.72C336.81 130.17 316.22 153.053 275.038 198.818L94 400" fill="#F4F1ED"/>
<path d="M160.667 325.916V540C160.667 596.007 160.667 624.01 171.566 645.4C181.153 664.217 196.451 679.514 215.268 689.1C236.659 700 264.661 700 320.667 700H467.333C523.34 700 551.34 700 572.733 689.1C591.55 679.514 606.847 664.217 616.433 645.4C627.333 624.01 627.333 596.007 627.333 540V325.937M694 400L512.893 198.8C471.703 153.041 451.11 130.162 426.853 121.715C405.553 114.296 382.367 114.298 361.063 121.72C336.81 130.17 316.22 153.053 275.038 198.818L94 400" stroke="#F4F1ED" stroke-width="66.6667" stroke-linecap="round" stroke-linejoin="round"/>
<path d="M315.533 490.533L400 575L484.467 490.533C494.412 480.587 500 467.098 500 453.033V450.654C500 422.679 477.321 400 449.346 400C433.957 400 419.404 406.995 409.791 419.011L400 431.25L390.209 419.011C380.596 406.995 366.042 400 350.654 400C322.679 400 300 422.679 300 450.654V453.033C300 467.098 305.587 480.587 315.533 490.533Z" fill="#2E3A59"/>
</svg>
