<svg width="800" height="800" viewBox="0 0 800 800" fill="none" xmlns="http://www.w3.org/2000/svg">
<path d="M450 275C450 281.63 447.366 287.989 442.678 292.678C437.989 297.366 431.63 300 425 300C391.848 300 360.054 313.17 336.612 336.612C313.17 360.054 300 391.848 300 425C300 431.63 297.366 437.989 292.678 442.678C287.989 447.366 281.63 450 275 450C268.37 450 262.011 447.366 257.322 442.678C252.634 437.989 250 431.63 250 425C250 391.848 236.83 360.054 213.388 336.612C189.946 313.17 158.152 300 125 300C118.37 300 112.011 297.366 107.322 292.678C102.634 287.989 100 281.63 100 275C100 268.37 102.634 262.011 107.322 257.322C112.011 252.634 118.37 250 125 250C158.152 250 189.946 236.83 213.388 213.388C236.83 189.946 250 158.152 250 125C250 118.37 252.634 112.011 257.322 107.322C262.011 102.634 268.37 100 275 100C281.63 100 287.989 102.634 292.678 107.322C297.366 112.011 300 118.37 300 125C300 158.152 313.17 189.946 336.612 213.388C360.054 236.83 391.848 250 425 250C431.63 250 437.989 252.634 442.678 257.322C447.366 262.011 450 268.37 450 275Z" fill="#F4F1ED"/>
<path d="M475 600C475 606.63 472.366 612.989 467.678 617.678C462.989 622.366 456.63 625 450 625C436.739 625 424.021 630.268 414.645 639.645C405.268 649.021 400 661.739 400 675C400 681.63 397.366 687.989 392.678 692.678C387.989 697.366 381.63 700 375 700C368.37 700 362.011 697.366 357.322 692.678C352.634 687.989 350 681.63 350 675C350 661.739 344.732 649.021 335.355 639.645C325.979 630.268 313.261 625 300 625C293.37 625 287.011 622.366 282.322 617.678C277.634 612.989 275 606.63 275 600C275 593.37 277.634 587.011 282.322 582.322C287.011 577.634 293.37 575 300 575C313.261 575 325.979 569.732 335.355 560.355C344.732 550.979 350 538.261 350 525C350 518.37 352.634 512.011 357.322 507.322C362.011 502.634 368.37 500 375 500C381.63 500 387.989 502.634 392.678 507.322C397.366 512.011 400 518.37 400 525C400 538.261 405.268 550.979 414.645 560.355C424.021 569.732 436.739 575 450 575C456.63 575 462.989 577.634 467.678 582.322C472.366 587.011 475 593.37 475 600Z" fill="#F4F1ED"/>
<path d="M700 425C700 431.63 697.366 437.989 692.678 442.678C687.989 447.366 681.63 450 675 450C648.478 450 623.043 460.536 604.289 479.289C585.536 498.043 575 523.478 575 550C575 556.63 572.366 562.989 567.678 567.678C562.989 572.366 556.63 575 550 575C543.37 575 537.011 572.366 532.322 567.678C527.634 562.989 525 556.63 525 550C525 523.478 514.464 498.043 495.711 479.289C476.957 460.536 451.522 450 425 450C418.37 450 412.011 447.366 407.322 442.678C402.634 437.989 400 431.63 400 425C400 418.37 402.634 412.011 407.322 407.322C412.011 402.634 418.37 400 425 400C451.522 400 476.957 389.464 495.711 370.711C514.464 351.957 525 326.522 525 300C525 293.37 527.634 287.011 532.322 282.322C537.011 277.634 543.37 275 550 275C556.63 275 562.989 277.634 567.678 282.322C572.366 287.011 575 293.37 575 300C575 326.522 585.536 351.957 604.289 370.711C623.043 389.464 648.478 400 675 400C681.63 400 687.989 402.634 692.678 407.322C697.366 412.011 700 418.37 700 425Z" fill="#F4F1ED"/>
</svg>
